%TF.GenerationSoftware,KiCad,Pcbnew,10.0.1*%
%TF.CreationDate,2026-06-18T09:44:00-07:00*%
%TF.ProjectId,Hackpad,4861636b-7061-4642-9e6b-696361645f70,rev?*%
%TF.SameCoordinates,Original*%
%TF.FileFunction,Copper,L1,Top*%
%TF.FilePolarity,Positive*%
%FSLAX46Y46*%
G04 Gerber Fmt 4.6, Leading zero omitted, Abs format (unit mm)*
G04 Created by KiCad (PCBNEW 10.0.1) date 2026-06-18 09:44:00*
%MOMM*%
%LPD*%
G01*
G04 APERTURE LIST*
%TA.AperFunction,ComponentPad*%
%ADD10R,3.500000X1.700000*%
%TD*%
%TA.AperFunction,ComponentPad*%
%ADD11O,3.600000X1.700000*%
%TD*%
%TA.AperFunction,ComponentPad*%
%ADD12O,3.700000X1.700000*%
%TD*%
%TA.AperFunction,ComponentPad*%
%ADD13R,2.000000X2.000000*%
%TD*%
%TA.AperFunction,ComponentPad*%
%ADD14C,2.000000*%
%TD*%
%TA.AperFunction,ComponentPad*%
%ADD15R,3.200000X2.000000*%
%TD*%
%TA.AperFunction,ComponentPad*%
%ADD16C,2.300000*%
%TD*%
%TA.AperFunction,ViaPad*%
%ADD17C,0.600000*%
%TD*%
%TA.AperFunction,Conductor*%
%ADD18C,0.200000*%
%TD*%
G04 APERTURE END LIST*
D10*
%TO.P,U1,1,PA02_A0_D0_1*%
%TO.N,D0*%
X84820000Y-27940000D03*
D11*
%TO.P,U1,2,PA4_A1_D1_2*%
%TO.N,D1*%
X84820000Y-30480000D03*
%TO.P,U1,3,PA10_A2_D2_3*%
%TO.N,D2*%
X84820000Y-33020000D03*
%TO.P,U1,4,PA11_A3_D3_4*%
%TO.N,D3*%
X84820000Y-35560000D03*
%TO.P,U1,5,PA8_A4_D4_SDA_5*%
%TO.N,unconnected-(U1-PA8_A4_D4_SDA-Pad5)*%
X84820000Y-38100000D03*
%TO.P,U1,6,PA9_A5_D5_SCL_6*%
%TO.N,unconnected-(U1-PA9_A5_D5_SCL-Pad6)*%
X84820000Y-40640000D03*
%TO.P,U1,7,PB08_A6_D6_TX_7*%
%TO.N,D5*%
X84820000Y-43180000D03*
%TO.P,U1,8,PB09_A7_D7_RX_8*%
%TO.N,D4*%
X67570000Y-43180000D03*
%TO.P,U1,9,PA7_A8_D8_SCK_9*%
%TO.N,unconnected-(U1-PA7_A8_D8_SCK-Pad9)*%
X67570000Y-40640000D03*
%TO.P,U1,10,PA5_A9_D9_MISO_10*%
%TO.N,unconnected-(U1-PA5_A9_D9_MISO-Pad10)*%
X67570000Y-38100000D03*
D12*
%TO.P,U1,11,PA6_A10_D10_MOSI_11*%
%TO.N,unconnected-(U1-PA6_A10_D10_MOSI-Pad11)*%
X67570000Y-35560000D03*
%TO.P,U1,12,3V3_12*%
%TO.N,unconnected-(U1-3V3-Pad12)*%
X67570000Y-33020000D03*
%TO.P,U1,13,GND_13*%
%TO.N,GND*%
X67570000Y-30480000D03*
%TO.P,U1,14,5V_14*%
%TO.N,unconnected-(U1-5V-Pad14)*%
X67570000Y-27940000D03*
%TD*%
D13*
%TO.P,SW4,A,A_A*%
%TO.N,D3*%
X102340000Y-33100000D03*
D14*
%TO.P,SW4,B,B_B*%
%TO.N,D4*%
X102340000Y-38100000D03*
%TO.P,SW4,C,C_C*%
%TO.N,GND*%
X102340000Y-35600000D03*
D15*
%TO.P,SW4,MP*%
%TO.N,N/C*%
X109840000Y-30000000D03*
X109840000Y-41200000D03*
D14*
%TO.P,SW4,S1,S1_S1*%
%TO.N,D5*%
X116840000Y-38100000D03*
%TO.P,SW4,S2,S2_S2*%
%TO.N,GND*%
X116840000Y-33100000D03*
%TD*%
D16*
%TO.P,SW3,1,1_1*%
%TO.N,D2*%
X105410000Y-54610000D03*
%TO.P,SW3,2,2_2*%
%TO.N,GND*%
X111760000Y-52070000D03*
%TD*%
%TO.P,SW2,1,1_1*%
%TO.N,D1*%
X86360000Y-54610000D03*
%TO.P,SW2,2,2_2*%
%TO.N,GND*%
X92710000Y-52070000D03*
%TD*%
%TO.P,SW1,1,1_1*%
%TO.N,D0*%
X67310000Y-54610000D03*
%TO.P,SW1,2,2_2*%
%TO.N,GND*%
X73660000Y-52070000D03*
%TD*%
D17*
%TO.N,D4*%
X99060000Y-40640000D03*
%TD*%
%TO.N,D2*%
D18*
X83820000Y-33020000D02*
X80010000Y-36830000D01*
X80010000Y-36830000D02*
X80010000Y-44450000D01*
X80010000Y-44450000D02*
X83820000Y-48260000D01*
X83820000Y-48260000D02*
X99060000Y-48260000D01*
X99060000Y-48260000D02*
X105410000Y-54610000D01*
%TO.N,GND*%
X73660000Y-57957588D02*
X73660000Y-52070000D01*
%TO.N,D5*%
X116840000Y-38100000D02*
X111760000Y-43180000D01*
X111760000Y-43180000D02*
X83820000Y-43180000D01*
%TO.N,D4*%
X99800000Y-40640000D02*
X99060000Y-40640000D01*
X102340000Y-38100000D02*
X99800000Y-40640000D01*
%TO.N,D3*%
X102340000Y-33100000D02*
X99880000Y-35560000D01*
X99880000Y-35560000D02*
X83820000Y-35560000D01*
%TO.N,D1*%
X78740000Y-46990000D02*
X78740000Y-35560000D01*
X86360000Y-54610000D02*
X78740000Y-46990000D01*
X78740000Y-35560000D02*
X83820000Y-30480000D01*
%TO.N,D0*%
X76200000Y-45720000D02*
X76200000Y-33020000D01*
X81280000Y-27940000D02*
X83820000Y-27940000D01*
X67310000Y-54610000D02*
X76200000Y-45720000D01*
X76200000Y-33020000D02*
X81280000Y-27940000D01*
%TO.N,GND*%
X116840000Y-33100000D02*
X114340000Y-35600000D01*
X114340000Y-35600000D02*
X102340000Y-35600000D01*
X119380000Y-44450000D02*
X119380000Y-35560000D01*
X111760000Y-52070000D02*
X119380000Y-44450000D01*
X119380000Y-35560000D02*
X119300000Y-35560000D01*
X119300000Y-35560000D02*
X116840000Y-33100000D01*
X106680000Y-66040000D02*
X111760000Y-60960000D01*
X86360000Y-66040000D02*
X106680000Y-66040000D01*
X63500000Y-66040000D02*
X86360000Y-66040000D01*
X111760000Y-60960000D02*
X111760000Y-52070000D01*
X88900000Y-66040000D02*
X93980000Y-60960000D01*
X93980000Y-60960000D02*
X93980000Y-53340000D01*
X86360000Y-66040000D02*
X88900000Y-66040000D01*
X93980000Y-53340000D02*
X92710000Y-52070000D01*
X63500000Y-66040000D02*
X65577588Y-66040000D01*
X60960000Y-37003654D02*
X60960000Y-63500000D01*
X68570000Y-30480000D02*
X67483654Y-30480000D01*
X60960000Y-63500000D02*
X63500000Y-66040000D01*
X67483654Y-30480000D02*
X60960000Y-37003654D01*
X73660000Y-57957588D02*
X65577588Y-66040000D01*
%TD*%
M02*
