%TF.GenerationSoftware,KiCad,Pcbnew,10.0.1*%
%TF.CreationDate,2026-06-18T09:44:00-07:00*%
%TF.ProjectId,Hackpad,4861636b-7061-4642-9e6b-696361645f70,rev?*%
%TF.SameCoordinates,Original*%
%TF.FileFunction,Legend,Top*%
%TF.FilePolarity,Positive*%
%FSLAX46Y46*%
G04 Gerber Fmt 4.6, Leading zero omitted, Abs format (unit mm)*
G04 Created by KiCad (PCBNEW 10.0.1) date 2026-06-18 09:44:00*
%MOMM*%
%LPD*%
G01*
G04 APERTURE LIST*
%ADD10C,0.150000*%
%ADD11C,0.120000*%
G04 APERTURE END LIST*
D10*
X103806667Y-28807200D02*
X103949524Y-28854819D01*
X103949524Y-28854819D02*
X104187619Y-28854819D01*
X104187619Y-28854819D02*
X104282857Y-28807200D01*
X104282857Y-28807200D02*
X104330476Y-28759580D01*
X104330476Y-28759580D02*
X104378095Y-28664342D01*
X104378095Y-28664342D02*
X104378095Y-28569104D01*
X104378095Y-28569104D02*
X104330476Y-28473866D01*
X104330476Y-28473866D02*
X104282857Y-28426247D01*
X104282857Y-28426247D02*
X104187619Y-28378628D01*
X104187619Y-28378628D02*
X103997143Y-28331009D01*
X103997143Y-28331009D02*
X103901905Y-28283390D01*
X103901905Y-28283390D02*
X103854286Y-28235771D01*
X103854286Y-28235771D02*
X103806667Y-28140533D01*
X103806667Y-28140533D02*
X103806667Y-28045295D01*
X103806667Y-28045295D02*
X103854286Y-27950057D01*
X103854286Y-27950057D02*
X103901905Y-27902438D01*
X103901905Y-27902438D02*
X103997143Y-27854819D01*
X103997143Y-27854819D02*
X104235238Y-27854819D01*
X104235238Y-27854819D02*
X104378095Y-27902438D01*
X104711429Y-27854819D02*
X104949524Y-28854819D01*
X104949524Y-28854819D02*
X105140000Y-28140533D01*
X105140000Y-28140533D02*
X105330476Y-28854819D01*
X105330476Y-28854819D02*
X105568572Y-27854819D01*
X106378095Y-28188152D02*
X106378095Y-28854819D01*
X106140000Y-27807200D02*
X105901905Y-28521485D01*
X105901905Y-28521485D02*
X106520952Y-28521485D01*
%TO.C,SW4*%
D11*
X102040000Y-31500000D02*
X102640000Y-31500000D01*
X102340000Y-31800000D02*
X102040000Y-31500000D01*
X102640000Y-31500000D02*
X102340000Y-31800000D01*
X103740000Y-29700000D02*
X103740000Y-41500000D01*
X107840000Y-29700000D02*
X103740000Y-29700000D01*
X107840000Y-41500000D02*
X103740000Y-41500000D01*
X109340000Y-35600000D02*
X110340000Y-35600000D01*
X109840000Y-35100000D02*
X109840000Y-36100000D01*
X111840000Y-29700000D02*
X115940000Y-29700000D01*
X115940000Y-29700000D02*
X115940000Y-32100000D01*
X115940000Y-34300000D02*
X115940000Y-36900000D01*
X115940000Y-39100000D02*
X115940000Y-41500000D01*
X115940000Y-41500000D02*
X111840000Y-41500000D01*
X112840000Y-35600000D02*
G75*
G02*
X106840000Y-35600000I-3000000J0D01*
G01*
X106840000Y-35600000D02*
G75*
G02*
X112840000Y-35600000I3000000J0D01*
G01*
%TD*%
M02*
